# xmcd
# 
# Track frame offsets:
#     150
#     21825
#     38422
#     52335
#     62402
#     73117
#     88810
#     104202
#     127057
#     142055
#     155535
#     169137
#     181175
#     195425
#     210475
#     223917
#     239387
#     259792
#     273462
#     289000
# 
# Disc length: 4020
# 
# Revision: 0
# Processed by: cddbd v1.5.2PL0 Copyright (c) Steve Scherf et al.
# Submitted via: BonkEnc v1.0.8
# 
DISCID=3a0fb214
DTITLE=Larry Gatlin and The Gatlin Brothers - The Legendary Larry Gatlin and The Gatlin Brothers [CD2]
DYEAR=2010
DGENRE=Country
TTITLE0=Penny Annie
TTITLE1=Bitter They Are Harder They Fall
TTITLE2=Sweet Becky Walker
TTITLE3=Delta Dirt
TTITLE4=Let's Turn The Lights On
TTITLE5=The Heart
TTITLE6=She Used To Sing On Sunday
TTITLE7=Midnight Choir (Mogen David)
TTITLE8=Changin' Partners
TTITLE9=Alive and Well
TTITLE10=Nothing But Your Love Matters
TTITLE11=Warm and Tender
TTITLE12=It Don't Get No Better Than This
TTITLE13=In Like With Each Other
TTITLE14=Almost Called Her Baby By Mistake
TTITLE15=Easy On The Eye
TTITLE16=We're Number One
TTITLE17=Wind Is Bound To Change
TTITLE18=From Time To Time (It Feels Like Love Again)
TTITLE19=My Last Love Song
EXTD=
EXTT0=
EXTT1=
EXTT2=
EXTT3=
EXTT4=
EXTT5=
EXTT6=
EXTT7=
EXTT8=
EXTT9=
EXTT10=
EXTT11=
EXTT12=
EXTT13=
EXTT14=
EXTT15=
EXTT16=
EXTT17=
EXTT18=
EXTT19=
PLAYORDER=
